<mxfile host="app.diagrams.net" modified="2024-01-31T06:19:03.263Z" agent="Mozilla/5.0 (Windows NT 10.0; Win64; x64) AppleWebKit/537.36 (KHTML, like Gecko) Chrome/121.0.0.0 Safari/537.36 Edg/121.0.0.0" version="23.0.2" etag="276AGUWtYwU8jI6vKyzi" type="github">
  <diagram name="第 1 页" id="b6vRy2xRnhecM03bWpZb">
    <mxGraphModel>
      <root>
        <mxCell id="0" />
        <mxCell id="1" parent="0" />
      </root>
    </mxGraphModel>
  </diagram>
</mxfile>
